HIERARCHY
ROOT joint_Root
{
	OFFSET 0.0 0.0 0.0
	CHANNELS 6 Xposition Yposition Zposition Zrotation Xrotation Yrotation 
	JOINT Hips
	{
		OFFSET -17.1583 93.1646 452.98
		CHANNELS 6 Xposition Yposition Zposition Zrotation Xrotation Yrotation 
		JOINT Spine
		{
			OFFSET 15.7357 0.0 0.0
			CHANNELS 6 Xposition Yposition Zposition Zrotation Xrotation Yrotation 
			JOINT Chest
			{
				OFFSET 8.98455 -0.406207 0.0
				CHANNELS 6 Xposition Yposition Zposition Zrotation Xrotation Yrotation 
				JOINT Neck
				{
					OFFSET 16.3773 0.0 0.0
					CHANNELS 6 Xposition Yposition Zposition Zrotation Xrotation Yrotation 
					JOINT Head
					{
						OFFSET 6.45672 0.0 0.0
						CHANNELS 6 Xposition Yposition Zposition Zrotation Xrotation Yrotation 
						End Site
						{
							OFFSET 0.0 0.0 0.0
						}
					}
				}
				JOINT Shoulder_L
				{
					OFFSET 12.9942 -0.242716 4.98039
					CHANNELS 6 Xposition Yposition Zposition Zrotation Xrotation Yrotation 
					JOINT UpperArm_L
					{
						OFFSET 5.34809 0.0 0.0
						CHANNELS 6 Xposition Yposition Zposition Zrotation Xrotation Yrotation 
						JOINT LowerArm_L
						{
							OFFSET 24.3286 1.87007e-05 0.0
							CHANNELS 6 Xposition Yposition Zposition Zrotation Xrotation Yrotation 
							JOINT Hand_L
							{
								OFFSET 22.2916 0.0 0.0
								CHANNELS 6 Xposition Yposition Zposition Zrotation Xrotation Yrotation 
								End Site
								{
									OFFSET 0.0 0.0 0.0
								}
							}
						}
					}
				}
				JOINT Shoulder_R
				{
					OFFSET 12.9945 -0.242716 -4.98039
					CHANNELS 6 Xposition Yposition Zposition Zrotation Xrotation Yrotation 
					JOINT UpperArm_R
					{
						OFFSET -5.34813 0.0 0.0
						CHANNELS 6 Xposition Yposition Zposition Zrotation Xrotation Yrotation 
						JOINT LowerArm_R
						{
							OFFSET -24.3289 0.000322201 0.0
							CHANNELS 6 Xposition Yposition Zposition Zrotation Xrotation Yrotation 
							JOINT Hand_R
							{
								OFFSET -22.2915 -0.000108084 0.0
								CHANNELS 6 Xposition Yposition Zposition Zrotation Xrotation Yrotation 
								End Site
								{
									OFFSET 0.0 0.0 0.0
								}
							}
						}
					}
				}
			}
		}
		JOINT UpperLeg_L
		{
			OFFSET -2.19248 -6.46944 0.0
			CHANNELS 6 Xposition Yposition Zposition Zrotation Xrotation Yrotation 
			JOINT LowerLeg_L
			{
				OFFSET 39.0811 0.0 -1.23785e-05
				CHANNELS 6 Xposition Yposition Zposition Zrotation Xrotation Yrotation 
				JOINT Foot_L
				{
					OFFSET 40.9854 0.0 -1.26872e-05
					CHANNELS 6 Xposition Yposition Zposition Zrotation Xrotation Yrotation 
					JOINT Toes_L
					{
						OFFSET 11.7543 0.0 0.0
						CHANNELS 6 Xposition Yposition Zposition Zrotation Xrotation Yrotation 
						End Site
						{
							OFFSET 0.0 0.0 0.0
						}
					}
				}
			}
		}
		JOINT UpperLeg_R
		{
			OFFSET -2.19251 6.46944 0.0
			CHANNELS 6 Xposition Yposition Zposition Zrotation Xrotation Yrotation 
			JOINT LowerLeg_R
			{
				OFFSET -39.0811 -0.00228153 -0.0401928
				CHANNELS 6 Xposition Yposition Zposition Zrotation Xrotation Yrotation 
				JOINT Foot_R
				{
					OFFSET -40.9854 0.0 0.0
					CHANNELS 6 Xposition Yposition Zposition Zrotation Xrotation Yrotation 
					JOINT Toes_R
					{
						OFFSET -11.7543 0.0 0.0
						CHANNELS 6 Xposition Yposition Zposition Zrotation Xrotation Yrotation 
						End Site
						{
							OFFSET 0.0 0.0 0.0
						}
					}
				}
			}
		}
	}
}
MOTION
Frames:	9
Frame Time:	0.0333333
0.000000 0.000000 0.000000 0.000000 0.000000 -0.000000 -2.515020 93.287900 -3.767830 87.930700 3.798480 3.925610 15.735700 0.000005 -0.000001 83.313100 84.309200 -82.330100 8.984550 -0.406207 -0.000000 3.551320 -1.359790 2.006100 16.377300 -0.000001 -0.000001 -1.698990 1.212000 -2.894320 6.456720 -0.000001 -0.000000 -13.812500 0.018568 -1.993210 12.994200 -0.242716 4.980390 -93.228500 10.766800 -73.198800 5.348090 -0.000007 -0.000001 -65.968600 31.080700 -8.901510 24.328600 0.000019 0.000005 11.262500 27.848900 -23.089000 22.291600 -0.000001 0.000005 -14.553900 5.262870 0.759813 12.994500 -0.242716 -4.980390 87.478200 7.933930 -72.303900 -5.348130 -0.000001 -0.000004 -63.017700 35.039000 -11.822500 -24.328900 0.000322 -0.000009 0.220566 0.566104 -21.432000 -22.291500 -0.000108 -0.000004 -13.239200 5.255460 1.291220 -2.192480 -6.469440 -0.000000 -172.096000 -9.912240 -1.890750 39.081100 -0.000007 -0.000012 0.008321 -0.027463 16.856300 40.985400 -0.000006 -0.000013 -1.256070 17.351900 -66.719100 11.754300 -0.000000 0.000003 -0.000879 0.181297 -9.222610 -2.192510 6.469440 -0.000001 177.465000 10.176000 -178.961000 -39.081100 -0.002282 -0.040193 0.019602 -0.066182 13.811500 -40.985400 0.000008 0.000006 -5.606660 8.533250 -66.188000 -11.754300 -0.000006 -0.000006 -0.010313 0.273632 -5.455790
0.000000 0.000000 0.000000 0.000000 0.000000 -0.000000 -2.501500 93.247300 -3.380270 87.947300 4.071770 3.645130 15.735700 0.000005 -0.000001 81.693000 84.760900 -80.664300 8.984550 -0.406207 -0.000000 2.618000 -1.558760 2.091180 16.377300 -0.000001 -0.000001 -1.212880 1.408360 -2.574920 6.456720 -0.000001 -0.000000 -14.213700 0.908762 -2.417700 12.994200 -0.242716 4.980390 -93.323400 10.993900 -73.064600 5.348090 -0.000007 -0.000001 -59.608500 32.370500 -13.953700 24.328600 0.000019 0.000005 15.863900 37.732600 -24.909100 22.291600 -0.000001 0.000005 -29.722200 5.538430 -8.604090 12.994500 -0.242716 -4.980390 87.442900 7.536060 -71.194000 -5.348130 -0.000001 -0.000004 -60.703200 29.633500 -12.422700 -24.328900 0.000322 -0.000009 -0.411783 -0.846432 -25.883600 -22.291500 -0.000108 -0.000004 -21.899400 5.218940 2.277750 -2.192480 -6.469440 -0.000000 -172.109000 -9.854840 -2.049280 39.081100 -0.000007 -0.000012 0.008262 -0.026919 17.063000 40.985400 -0.000006 -0.000013 -1.169450 17.584200 -67.115700 11.754300 -0.000000 0.000003 -0.000896 0.181549 -9.212380 -2.192510 6.469440 -0.000001 177.397000 10.642200 -179.001000 -39.081100 -0.002282 -0.040193 0.020992 -0.071036 13.960900 -40.985400 0.000008 0.000006 -5.641780 8.782490 -66.496200 -11.754300 -0.000006 -0.000006 -0.010022 0.271471 -5.544210
0.000000 0.000000 0.000000 0.000000 0.000000 -0.000000 -2.470900 93.280900 -2.976830 87.962700 4.393210 2.941410 15.735700 0.000005 -0.000001 78.812800 85.558300 -77.749200 8.984550 -0.406207 -0.000000 0.966649 -1.785920 2.140650 16.377300 -0.000001 -0.000001 -0.550900 1.685950 -2.349400 6.456720 -0.000001 -0.000000 -13.908600 1.760520 -2.455670 12.994200 -0.242716 4.980390 -93.001500 9.764820 -72.820800 5.348090 -0.000007 -0.000001 -54.494600 26.099500 -19.825500 24.328600 0.000019 0.000005 13.179200 38.583500 -20.579300 22.291600 -0.000001 0.000005 -41.342500 5.516890 -7.200470 12.994500 -0.242716 -4.980390 87.633300 6.530900 -70.029000 -5.348130 -0.000001 -0.000004 -56.940500 22.623300 -14.421800 -24.328900 0.000322 -0.000009 -0.644097 -1.038280 -31.750300 -22.291500 -0.000108 -0.000004 -28.249800 5.136290 4.278230 -2.192480 -6.469440 -0.000000 -172.110000 -10.631800 -2.268040 39.081100 -0.000007 -0.000012 0.000858 -0.002885 16.571500 40.985400 -0.000006 -0.000013 -1.090320 18.517600 -67.205300 11.754300 -0.000000 0.000003 -0.000946 0.182262 -9.183430 -2.192510 6.469440 -0.000001 177.261000 11.943900 -179.011000 -39.081100 -0.002282 -0.040193 0.016053 -0.054142 13.221000 -40.985400 0.000008 0.000006 -5.904800 9.753060 -66.184500 -11.754300 -0.000006 -0.000006 -0.010066 0.271801 -5.530710
0.000000 0.000000 0.000000 0.000000 0.000000 -0.000000 -2.422190 93.352300 -2.554030 87.909800 4.524100 1.881220 15.735700 0.000005 -0.000001 74.346900 86.441500 -73.154300 8.984550 -0.406207 -0.000000 -0.890978 -2.009910 2.368680 16.377300 -0.000001 -0.000001 -0.288861 2.099970 -2.383640 6.456720 -0.000001 -0.000000 -13.409800 2.743330 -2.724790 12.994200 -0.242716 4.980390 -92.606700 8.408700 -72.706700 5.348090 -0.000007 -0.000001 -49.889800 14.995400 -26.152400 24.328600 0.000019 0.000005 9.475840 38.974600 -14.860800 22.291600 -0.000001 0.000005 -36.335400 5.358530 -1.724910 12.994500 -0.242716 -4.980390 87.930500 5.424880 -69.081900 -5.348130 -0.000001 -0.000004 -51.421500 14.473200 -18.882700 -24.328900 0.000322 -0.000009 -1.150680 -1.533560 -36.859700 -22.291500 -0.000108 -0.000004 -27.145000 5.095300 5.224630 -2.192480 -6.469440 -0.000000 -172.078000 -12.081400 -2.631120 39.081100 -0.000007 -0.000012 -0.011936 0.042416 15.716000 40.985400 -0.000006 -0.000013 -1.013240 19.863000 -67.049200 11.754300 -0.000000 0.000003 -0.001177 0.185525 -9.050810 -2.192510 6.469440 -0.000001 177.253000 13.375200 -179.052000 -39.081100 -0.002282 -0.040193 0.008901 -0.026663 11.789900 -40.985400 0.000008 0.000006 -6.322400 10.993600 -65.393200 -11.754300 -0.000006 -0.000006 -0.010309 0.273599 -5.457130
0.000000 0.000000 0.000000 0.000000 0.000000 -0.000000 -2.338220 93.436100 -2.069490 87.890500 4.393800 0.744882 15.735700 0.000005 -0.000001 67.449100 87.251900 -66.146800 8.984550 -0.406207 -0.000000 -2.664280 -2.225560 2.553220 16.377300 -0.000001 -0.000001 -0.653703 2.576830 -2.458830 6.456720 -0.000001 -0.000000 -12.954400 3.691420 -2.830770 12.994200 -0.242716 4.980390 -92.236500 7.206120 -72.706700 5.348090 -0.000007 -0.000001 -43.600500 4.407870 -32.162900 24.328600 0.000019 0.000005 7.154980 36.673100 -11.869400 22.291600 -0.000001 0.000005 -22.832700 5.337430 -0.956517 12.994500 -0.242716 -4.980390 88.197600 4.637000 -68.731500 -5.348130 -0.000001 -0.000004 -44.817300 5.170920 -24.745500 -24.328900 0.000322 -0.000009 -1.818040 -2.166740 -39.992300 -22.291500 -0.000108 -0.000004 -21.270300 5.140710 4.186120 -2.192480 -6.469440 -0.000000 -172.204000 -13.049300 -2.855970 39.081100 -0.000007 -0.000012 -0.021774 0.083585 14.600800 40.985400 -0.000006 -0.000013 -1.063580 20.408000 -66.880600 11.754300 -0.000000 0.000003 -0.001712 0.192676 -8.760080 -2.192510 6.469440 -0.000001 177.260000 14.390700 -178.991000 -39.081100 -0.002282 -0.040193 0.002069 0.007236 9.952940 -40.985400 0.000008 0.000006 -7.049440 12.019500 -64.264800 -11.754300 -0.000006 -0.000006 -0.010715 0.276572 -5.335490
0.000000 0.000000 0.000000 0.000000 0.000000 -0.000000 -2.220140 93.537400 -1.611680 87.941300 4.132970 -0.787532 15.735700 0.000005 -0.000001 55.341500 88.014400 -53.972000 8.984550 -0.406207 -0.000000 -4.471360 -2.402630 2.647230 16.377300 -0.000001 -0.000001 -1.864110 3.054180 -2.523780 6.456720 -0.000001 -0.000000 -12.813200 4.515020 -2.978830 12.994200 -0.242716 4.980390 -91.863200 5.816410 -72.202100 5.348090 -0.000007 -0.000001 -37.337400 -6.608020 -37.510500 24.328600 0.000019 0.000005 6.646020 33.209200 -12.011900 22.291600 -0.000001 0.000005 -9.466370 5.358330 -1.693610 12.994500 -0.242716 -4.980390 88.652900 3.471240 -68.775300 -5.348130 -0.000001 -0.000004 -38.949600 -5.401340 -31.288600 -24.328900 0.000322 -0.000009 -3.167630 -3.781130 -39.997700 -22.291500 -0.000108 -0.000004 -14.862100 5.206310 2.577080 -2.192480 -6.469440 -0.000000 -172.592000 -13.397600 -3.277530 39.081100 -0.000007 -0.000012 -0.020025 0.085948 13.115100 40.985400 -0.000006 -0.000013 -1.237510 20.299800 -66.690600 11.754300 -0.000000 0.000003 -0.002028 0.196701 -8.596430 -2.192510 6.469440 -0.000001 177.316000 14.375000 -179.069000 -39.081100 -0.002282 -0.040193 0.000932 0.018348 7.487550 -40.985400 0.000008 0.000006 -8.571170 12.254000 -62.688600 -11.754300 -0.000006 -0.000006 -0.010624 0.275913 -5.362470
0.000000 0.000000 0.000000 0.000000 0.000000 -0.000000 -2.089320 93.652000 -1.160180 87.985800 3.812190 -2.290110 15.735700 0.000005 -0.000001 38.089600 88.491600 -36.632300 8.984550 -0.406207 -0.000000 -5.874170 -2.544220 2.787850 16.377300 -0.000001 -0.000001 -3.776230 3.471620 -2.748250 6.456720 -0.000001 -0.000000 -13.586000 5.047180 -3.209790 12.994200 -0.242716 4.980390 -91.202200 3.629700 -71.659600 5.348090 -0.000007 -0.000001 -31.789100 -17.412600 -41.701600 24.328600 0.000019 0.000005 5.393270 25.687000 -12.287200 22.291600 -0.000001 0.000005 0.654265 5.302840 -0.037453 12.994500 -0.242716 -4.980390 89.415000 1.546650 -69.283700 -5.348130 -0.000001 -0.000004 -33.782900 -16.596200 -37.408300 -24.328900 0.000322 -0.000009 -6.274990 -8.297560 -37.328700 -22.291500 -0.000108 -0.000004 -9.113530 5.236500 1.799820 -2.192480 -6.469440 -0.000000 -172.881000 -14.234500 -3.628190 39.081100 -0.000007 -0.000012 -0.023877 0.117961 11.442600 40.985400 -0.000006 -0.000013 -2.335990 20.718900 -65.706800 11.754300 -0.000000 0.000003 -0.002125 0.197901 -8.547630 -2.192510 6.469440 -0.000001 177.385000 13.980900 -178.923000 -39.081100 -0.002282 -0.040193 0.005952 -0.032692 4.553480 -40.985400 0.000008 0.000006 -10.258800 12.077100 -60.802900 -11.754300 -0.000006 -0.000006 -0.010839 0.277474 -5.298590
0.000000 0.000000 0.000000 0.000000 0.000000 -0.000000 -1.971900 93.773200 -0.743993 87.957400 3.413040 -3.660530 15.735700 0.000005 -0.000001 23.227000 88.708800 -21.652900 8.984550 -0.406207 -0.000000 -6.714070 -2.567420 3.002810 16.377300 -0.000001 -0.000001 -6.160700 3.660680 -2.977800 6.456720 -0.000001 -0.000000 -15.134500 5.422280 -3.624800 12.994200 -0.242716 4.980390 -90.335200 0.992830 -71.338400 5.348090 -0.000007 -0.000001 -27.979900 -29.308700 -45.450000 24.328600 0.000019 0.000005 3.140870 17.458900 -10.360600 22.291600 -0.000001 0.000005 7.512590 5.215190 2.286730 12.994500 -0.242716 -4.980390 90.498900 -1.338380 -69.555700 -5.348130 -0.000001 -0.000004 -30.053800 -27.759900 -43.579900 -24.328900 0.000322 -0.000009 -9.839850 -16.885100 -30.859000 -22.291500 -0.000108 -0.000004 -5.619640 5.272770 0.828770 -2.192480 -6.469440 -0.000000 -172.945000 -14.949000 -3.931450 39.081100 -0.000007 -0.000012 -0.033775 0.195298 9.811550 40.985400 -0.000006 -0.000013 -5.072680 21.188300 -63.790000 11.754300 -0.000000 0.000003 -0.002404 0.201296 -8.409530 -2.192510 6.469440 -0.000001 177.601000 13.978000 -179.772000 -39.081100 -0.002282 -0.040193 0.007121 -0.057075 3.780780 -40.985400 0.000008 0.000006 -10.498300 12.407800 -60.095200 -11.754300 -0.000006 -0.000006 -0.010734 0.276713 -5.329730
0.000000 0.000000 0.000000 0.000000 0.000000 -0.000000 -1.876500 93.861400 -0.275868 87.964100 3.152700 -4.492290 15.735700 0.000005 -0.000001 18.926400 88.702800 -17.239700 8.984550 -0.406207 -0.000000 -6.887220 -2.664640 3.219190 16.377300 -0.000001 -0.000001 -8.452700 3.822860 -3.038120 6.456720 -0.000001 -0.000000 -16.817100 5.801070 -4.359200 12.994200 -0.242716 4.980390 -89.387100 -1.723920 -70.433500 5.348090 -0.000007 -0.000001 -26.415200 -40.990000 -50.071200 24.328600 0.000019 0.000005 1.676410 13.620500 -7.079420 22.291600 -0.000001 0.000005 16.467300 5.031930 6.555310 12.994500 -0.242716 -4.980390 91.815400 -4.663240 -68.705900 -5.348130 -0.000001 -0.000004 -32.018600 -39.828900 -52.816000 -24.328900 0.000322 -0.000009 -7.338220 -19.876100 -20.737500 -22.291500 -0.000108 -0.000004 -0.649131 5.310380 -0.190691 -2.192480 -6.469440 -0.000000 -172.946000 -15.110800 -3.412780 39.081100 -0.000007 -0.000012 -0.027870 0.207002 7.667920 40.985400 -0.000006 -0.000013 -7.203090 21.202300 -61.872000 11.754300 -0.000000 0.000003 -0.001885 0.194901 -8.669620 -2.192510 6.469440 -0.000001 177.665000 14.012000 179.866000 -39.081100 -0.002282 -0.040193 0.007482 -0.072311 3.270000 -40.985400 0.000008 0.000006 -10.737600 12.625400 -59.539300 -11.754300 -0.000006 -0.000006 -0.009997 0.271280 -5.552010
